<svg width="19" height="19" xmlns="http://www.w3.org/2000/svg" xmlns:xlink="http://www.w3.org/1999/xlink" xml:space="preserve" overflow="hidden"><defs><clipPath id="clip0"><rect x="10" y="40" width="19" height="19"/></clipPath></defs><g clip-path="url(#clip0)" transform="translate(-10 -40)"><path d="M15.7396 45.1458C16.076 45.1458 16.3333 44.8885 16.3333 44.5521L16.3333 43.3646C16.3333 43.0281 16.076 42.7708 15.7396 42.7708 15.4031 42.7708 15.1458 43.0281 15.1458 43.3646L15.1458 44.5521C15.1458 44.8885 15.4031 45.1458 15.7396 45.1458Z"/><path d="M13.9583 48.7083 25.0417 48.7083 25.0417 55.0417 13.9583 55.0417 13.9583 48.7083ZM12.7708 56.2292 26.2292 56.2292 26.2292 47.5208 12.7708 47.5208 12.7708 56.2292Z"/><path d="M23.2604 45.1458C23.5969 45.1458 23.8542 44.8885 23.8542 44.5521L23.8542 43.3646C23.8542 43.0281 23.5969 42.7708 23.2604 42.7708 22.924 42.7708 22.6667 43.0281 22.6667 43.3646L22.6667 44.5521C22.6667 44.8885 22.924 45.1458 23.2604 45.1458Z"/><path d="M24.6458 43.9583 24.6458 44.5521C24.6458 45.324 24.0323 45.9375 23.2604 45.9375 22.4885 45.9375 21.875 45.324 21.875 44.5521L21.875 43.9583 17.125 43.9583 17.125 44.5521C17.125 45.324 16.5115 45.9375 15.7396 45.9375 14.9677 45.9375 14.3542 45.324 14.3542 44.5521L14.3542 43.9583 12.7708 43.9583 12.7708 46.7292 26.2292 46.7292 26.2292 43.9583 24.6458 43.9583Z"/></g></svg>