<svg width="18" height="19" xmlns="http://www.w3.org/2000/svg" xmlns:xlink="http://www.w3.org/1999/xlink" xml:space="preserve" overflow="hidden"><defs><clipPath id="clip0"><rect x="11" y="135" width="18" height="19"/></clipPath></defs><g clip-path="url(#clip0)" transform="translate(-11 -135)"><path d="M10.0312 14.9062C11.25 13.4062 12.6 11.5125 12.7313 9.375L14.9813 9.375C14.8125 12.1688 12.7313 14.4375 10.0312 14.9062ZM3.01875 9.375 5.26875 9.375C5.41875 11.5125 6.75 13.4062 7.96875 14.9062 5.26875 14.4375 3.1875 12.1688 3.01875 9.375ZM7.96875 3.09375C6.75 4.59375 5.4 6.4875 5.26875 8.625L3.01875 8.625C3.1875 5.83125 5.26875 3.5625 7.96875 3.09375ZM9.375 9.375 11.9813 9.375C11.8312 11.3062 10.575 13.05 9.375 14.5312L9.375 9.375ZM8.625 9.375 8.625 14.5312C7.425 13.05 6.16875 11.3062 6.01875 9.375L8.625 9.375ZM9.375 3.46875C10.575 4.95 11.8312 6.675 11.9813 8.625L9.375 8.625 9.375 3.46875ZM8.625 8.625 6.01875 8.625C6.16875 6.69375 7.425 4.95 8.625 3.46875L8.625 8.625ZM14.9813 8.625 12.7313 8.625C12.6 6.4875 11.25 4.59375 10.0312 3.09375 12.7313 3.5625 14.8125 5.83125 14.9813 8.625ZM9 1.875C5.0625 1.875 1.875 5.0625 1.875 9 1.875 12.9375 5.0625 16.125 9 16.125 12.9375 16.125 16.125 12.9375 16.125 9 16.125 5.0625 12.9375 1.875 9 1.875Z" transform="matrix(1 0 0 1.05556 11 135)"/></g></svg>