<svg width="19" height="19" xmlns="http://www.w3.org/2000/svg" xmlns:xlink="http://www.w3.org/1999/xlink" xml:space="preserve" overflow="hidden"><defs><clipPath id="clip0"><rect x="10" y="63" width="19" height="19"/></clipPath></defs><g clip-path="url(#clip0)" transform="translate(-10 -63)"><path d="M19.5 71.7083C18.5104 71.7083 17.7188 70.9167 17.7188 69.9271 17.7188 68.9375 18.5104 68.1458 19.5 68.1458 20.4896 68.1458 21.2812 68.9375 21.2812 69.9271 21.2812 70.9167 20.4896 71.7083 19.5 71.7083ZM19.5 65.7708C18.1344 65.7708 16.8479 66.4437 16.076 67.5917 15.3042 68.7198 15.1458 70.1646 15.6406 71.451L17.5208 75.6073 19.1437 79.0115C19.2031 79.15 19.3417 79.2292 19.5 79.2292 19.6583 79.2292 19.7969 79.15 19.8563 79.0115L21.4792 75.6073 23.3594 71.451C23.8542 70.1646 23.6958 68.7198 22.924 67.5917 22.1521 66.4437 20.8656 65.7708 19.5 65.7708Z"/></g></svg>