<svg width="19" height="19" xmlns="http://www.w3.org/2000/svg" xmlns:xlink="http://www.w3.org/1999/xlink" xml:space="preserve" overflow="hidden"><defs><clipPath id="clip0"><rect x="10" y="88" width="19" height="19"/></clipPath></defs><g clip-path="url(#clip0)" transform="translate(-10 -88)"><path d="M11.5833 91.9583 11.5833 103.042 27.4167 103.042 27.4167 91.9583 11.5833 91.9583ZM19.7771 98.8656C19.6187 99.024 19.3813 99.024 19.2229 98.8656L13.3646 93.1458 25.6552 93.1458 19.7771 98.8656ZM16.6302 97.4406 12.7708 101.32 12.7708 93.6604 16.6302 97.4406ZM17.2042 97.9948 18.6885 99.4396C18.926 99.6573 19.2229 99.776 19.5198 99.776 19.8167 99.776 20.1135 99.6573 20.351 99.4396L21.8354 97.9948 25.675 101.854 13.3448 101.854 17.2042 97.9948ZM22.3698 97.4406 26.2292 93.6802 26.2292 101.3 22.3698 97.4406Z"/></g></svg>