<svg width="19" height="18" xmlns="http://www.w3.org/2000/svg" xmlns:xlink="http://www.w3.org/1999/xlink" xml:space="preserve" overflow="hidden"><defs><clipPath id="clip0"><rect x="10" y="113" width="19" height="18"/></clipPath></defs><g clip-path="url(#clip0)" transform="translate(-10 -113)"><path d="M12.375 15 5.625 15 5.625 3 12.375 3 12.375 15ZM8.25 1.5 9.75 1.5C9.95625 1.5 10.125 1.66875 10.125 1.875 10.125 2.08125 9.95625 2.25 9.75 2.25L8.25 2.25C8.04375 2.25 7.875 2.08125 7.875 1.875 7.875 1.66875 8.04375 1.5 8.25 1.5ZM13.125 0.75 4.875 0.75C4.66875 0.75 4.5 0.91875 4.5 1.125L4.5 16.875C4.5 17.0812 4.66875 17.25 4.875 17.25L13.125 17.25C13.3312 17.25 13.5 17.0812 13.5 16.875L13.5 1.125C13.5 0.91875 13.3312 0.75 13.125 0.75Z" transform="matrix(1.05556 0 0 1 10 113)"/></g></svg>